<svg width="74" height="28" viewBox="0 0 74 28" fill="none" xmlns="http://www.w3.org/2000/svg">
<path d="M9.06792 27.0677V5.91185H0.470703V1.17769H22.9109V5.91185H14.3501V27.0677H9.06792ZM21.647 27.0677L32.1385 1.17769H38.2221L48.6044 27.0677H42.885L40.2986 20.2623H29.7706L27.1478 27.0677H21.647ZM31.4099 15.972H38.6957L35.0528 6.42965L31.4099 15.972ZM63.061 27.4375C61.1667 27.4375 59.3938 27.1046 57.7424 26.4389C56.0909 25.7485 54.6459 24.7992 53.4073 23.591C52.193 22.3828 51.2337 20.9774 50.5294 19.3746C49.8494 17.7473 49.5094 15.9966 49.5094 14.1227C49.5094 12.2241 49.8494 10.4734 50.5294 8.87071C51.2337 7.24334 52.2052 5.82555 53.4437 4.61735C54.6823 3.40916 56.1152 2.47219 57.7424 1.80644C59.3938 1.11604 61.1667 0.770844 63.061 0.770844C64.4696 0.770844 65.8296 0.968101 67.141 1.36261C68.4524 1.75713 69.6667 2.31191 70.7839 3.02697C71.9253 3.74203 72.8968 4.60503 73.6982 5.61597L70.1282 9.20358C69.2053 8.04469 68.1367 7.16937 66.9224 6.5776C65.7324 5.98582 64.4453 5.68994 63.061 5.68994C61.9195 5.68994 60.8509 5.91185 59.8552 6.35568C58.8595 6.77485 57.9974 7.36662 57.2688 8.13099C56.5402 8.87071 55.9695 9.75836 55.5566 10.794C55.1438 11.8049 54.9373 12.9145 54.9373 14.1227C54.9373 15.3062 55.1438 16.4158 55.5566 17.4514C55.9695 18.4623 56.5523 19.35 57.3052 20.1144C58.0581 20.8541 58.9324 21.4335 59.9281 21.8527C60.9481 22.2719 62.0531 22.4814 63.2431 22.4814C64.5788 22.4814 65.8296 22.1979 66.9953 21.6308C68.161 21.0637 69.1932 20.25 70.0917 19.1897L73.5525 22.6664C72.7511 23.6526 71.7918 24.5033 70.6746 25.2184C69.5575 25.9334 68.3432 26.4882 67.0317 26.8827C65.7446 27.2526 64.421 27.4375 63.061 27.4375Z" fill="#1E162C"/>
</svg>
